<?xml version="1.0" encoding="utf-8"?><svg xmlns="http://www.w3.org/2000/svg"  preserveAspectRatio="xMidYMid meet" viewBox="0 0 1024 258.4"><g fill="#ffffff"><g transform="translate(0,210.4) scale(1,-1)"><path d="M75 -27h-39v108q-1 -2 -4 -6q-10 -15 -17 -23q-3 20 -10 50q30 48 46 109l40 -10q-6 -22 -16 -45v-41q28 40 43 96l41 -7q-2 -7 -7 -19q-2 -6 -3 -8h101v-38h-75v-26h60v-37h-60v-25h68v-37h-68v-41h-40v166h-2q-15 -31 -33 -57q-7 7 -20 24q-3 4 -5 6v-139z"/><path transform="translate(256)" d="M37 199h183v-95h-183v95zM135 -27v115h105v-114h-36v10h-32v-11h-37zM16 -27v115h103v-115h-36v11h-31v-11h-36zM79 138h99v26h-99v-26zM172 55v-39h32v39h-32zM52 55v-39h31v39h-31z"/><path transform="translate(512)" d="M47 210l41 -10q-2 -6 -7 -18q-3 -10 -13 -36v-91q35 32 57 77h-43v36h54v41h39v-41h63v-36h-52q26 -49 63 -78q-2 -6 -7 -18q-6 -16 -9 -26q-14 16 -26 29v-33h-32v-34h-39v34h-32v28q-9 -12 -21 -26q-2 6 -7 17q-5 12 -8 17v-70h-37v104q-4 -6 -13 -18q-2 -5 -4 -7 q-6 38 -8 54q24 44 41 105zM206 41q-20 25 -31 49v-49h31zM136 89q-12 -28 -27 -48h27v48z"/><path transform="translate(768)" d="M193 115q9 -10 30 -32q18 -19 25 -27l-29 -22q-3 3 -10 12q-3 4 -5 6q-8 -1 -26 -1q-16 -1 -25 -1v-37q3 -39 -37 -39q-14 -1 -35 -1q-1 4 -3 13q-4 14 -6 19q-22 -14 -45 -30l-6 9q-10 16 -17 22q30 16 62 40h-10q-1 0 -5 -1q-15 -1 -20 -3l-11 37q17 3 33 10q2 1 7 3 q13 6 34 17q-5 0 -14 -1q-9 0 -14 -1q-8 0 -24 -3h-2l-11 34q18 4 25 8q11 7 25 16q-9 0 -28 -1q-19 0 -28 -1q-2 7 -5 21l-3 15q146 2 218 8l9 -35q-47 -3 -98 -5q-10 -6 -29 -17q-12 -6 -17 -9q34 2 54 2q4 2 11 6q13 7 34 20l30 -27q-63 -31 -127 -59q15 0 51 2 q18 1 27 1q-7 8 -13 15zM185 48q32 -20 65 -42l-25 -30q-18 14 -58 40q-5 3 -7 4zM111 48q-19 0 -39 -2l23 -24q-11 -7 -20 -15h23q14 -1 13 15v26z"/></g></g></svg>